<?xml version="1.0" encoding="iso-8859-1"?>
<!-- Generator: Adobe Illustrator 18.0.0, SVG Export Plug-In . SVG Version: 6.00 Build 0)  -->
<!DOCTYPE svg PUBLIC "-//W3C//DTD SVG 1.1//EN" "http://www.w3.org/Graphics/SVG/1.1/DTD/svg11.dtd">
<svg version="1.1" id="Capa_1" xmlns="http://www.w3.org/2000/svg" xmlns:xlink="http://www.w3.org/1999/xlink" x="0px" y="0px"
	 viewBox="0 0 315.367 315.367" style="enable-background:new 0 0 315.367 315.367;" xml:space="preserve">
<g>
	<g>
		<path style="fill:none;" d="M138.749,86.467v128.488C157.42,179.388,147.679,121.872,138.749,86.467z"/>
		<polygon style="fill:#58D2D4;" points="129.543,36.283 129.543,29.08 117.485,32.681 		"/>
		<polygon style="fill:#58D2D4;" points="129.543,82.638 129.543,103.908 65.435,221.814 129.543,221.814 129.543,82.637 		"/>
		<g>
			<path style="fill:#58D2D4;" d="M146.977,77.101c2.612,3.24,5.184,6.457,7.73,9.657C152.16,83.558,149.589,80.342,146.977,77.101z
				"/>
			<path style="fill:#58D2D4;" d="M233.796,194.814c-18.502-30-45.821-65.214-78.748-106.618c3.005,11.439,6.223,26.09,8.576,41.418
				c3.808,24.818,4.442,46.2,1.924,65.2H233.796z"/>
		</g>
		<g>
			<path style="fill:#58D2D4;" d="M244.317,208.012c0.422,0.617,0.844,1.234,1.251,1.83
				C245.161,209.244,244.741,208.63,244.317,208.012z"/>
			<path style="fill:#58D2D4;" d="M240.93,203.079c0.802,1.163,1.572,2.284,2.327,3.384
				C242.503,205.365,241.73,204.24,240.93,203.079z"/>
			<path style="fill:#58D2D4;" d="M245.963,210.814h-83.577c-0.181,0-0.359-1.056-0.534-1.074
				c-1.363,4.659-2.995,9.074-4.892,12.074h97.837C252.54,218.814,249.567,213.814,245.963,210.814z"/>
			<path style="fill:#58D2D4;" d="M154.509,203.051c-2.218,7.581-5.138,14.411-8.771,20.461
				C149.372,217.461,152.292,210.632,154.509,203.051C154.51,203.051,154.51,203.051,154.509,203.051z"/>
		</g>
		<polygon style="fill:#FDBD1D;" points="291.81,273.545 26.907,273.228 39.851,294.814 31.666,294.814 14.268,266.517 
			31.666,295.382 269.72,296.039 		"/>
		<path style="fill:#B74B00;" d="M314.973,259.911c-0.797-1.918-2.67-3.168-4.746-3.168h-82.157
			c-0.098-0.093-0.195-0.187-0.301-0.274L210.157,242c-0.919-0.755-2.072-1.168-3.262-1.168h-68.146v-7.043h125.592
			c1.881,0,3.612-1.028,4.512-2.68c0.901-1.652,0.826-3.664-0.194-5.245c-0.535-0.827-54.157-83.662-129.91-175.073v-7.214
			c0.01-0.13,0.023-0.259,0.023-0.39l-0.002-28.659c0-1.623-0.767-3.151-2.069-4.121c-0.581-0.432-1.238-0.722-1.924-0.88
			c-0.055-0.012-0.108-0.027-0.163-0.038c-0.101-0.019-0.201-0.033-0.301-0.047c-0.089-0.012-0.178-0.024-0.268-0.031
			c-0.085-0.007-0.17-0.01-0.255-0.013c-0.06-0.001-0.119-0.009-0.179-0.009c-0.057,0-0.111,0.007-0.166,0.008
			c-0.062,0.003-0.122,0.005-0.182,0.009c-0.161,0.011-0.32,0.03-0.476,0.055c-0.018,0.003-0.036,0.005-0.053,0.009
			c-0.261,0.044-0.515,0.107-0.76,0.191L84.19,23.931c-2.177,0.65-3.669,2.652-3.669,4.923c0,2.272,1.491,4.274,3.668,4.925
			l44.283,13.23v13.583L41.16,226.255c-0.84,1.592-0.784,3.509,0.146,5.051c0.93,1.541,2.6,2.484,4.4,2.484h82.766v7.043H59.563
			c-1.462,0-2.855,0.622-3.83,1.712l-10.69,11.949c-0.594,0.664-0.983,1.44-1.173,2.25H5.139c-1.856,0-3.568,1.002-4.479,2.618
			c-0.91,1.618-0.877,3.6,0.085,5.187l23.635,38.954c0.931,1.536,2.597,2.473,4.393,2.473h242.671c1.368,0,2.677-0.545,3.642-1.513
			l38.782-38.954C315.334,264.038,315.77,261.828,314.973,259.911z M145.738,223.512c3.633-6.05,6.553-12.88,8.771-20.461
			c0.176,0.018,0.354,0.028,0.535,0.028h85.886c5.955,8.639,10.632,15.58,13.867,20.433H145.738z M233.796,192.801h-76.801
			c3.848-19.742,3.62-43.813-0.712-72.038c-2.544-16.578-6.101-31.78-9.306-43.662C183.521,122.437,213.801,164.185,233.796,192.801
			z M138.749,86.467c8.93,35.405,18.671,92.92,0,128.488V86.467z M269.309,295.698H31.666l-17.398-28.676h283.591L269.309,295.698z
			 M128.471,21.434v14.849l-24.858-7.425L128.471,21.434z M128.471,82.637v140.875H54.224L128.471,82.637z M205.054,251.11
			l6.857,5.633H56.821l5.04-5.633H205.054z"/>
	</g>
</g>
<g>
</g>
<g>
</g>
<g>
</g>
<g>
</g>
<g>
</g>
<g>
</g>
<g>
</g>
<g>
</g>
<g>
</g>
<g>
</g>
<g>
</g>
<g>
</g>
<g>
</g>
<g>
</g>
<g>
</g>
</svg>
